<?xml version="1.0" encoding="UTF-8" standalone="no"?>
<!-- Generator: Adobe Illustrator 27.5.0, SVG Export Plug-In . SVG Version: 6.00 Build 0)  -->

<svg
   version="1.1"
   x="0px"
   y="0px"
   viewBox="0 0 732 479.81"
   xml:space="preserve"
   id="svg11"
   sodipodi:docname="3120636_36176.svg"
   inkscape:version="1.3 (0e150ed, 2023-07-21)"
   width="732"
   height="479.81"
   xmlns:inkscape="http://www.inkscape.org/namespaces/inkscape"
   xmlns:sodipodi="http://sodipodi.sourceforge.net/DTD/sodipodi-0.dtd"
   xmlns="http://www.w3.org/2000/svg"
   xmlns:svg="http://www.w3.org/2000/svg"><defs
   id="defs11" /><sodipodi:namedview
   id="namedview11"
   pagecolor="#ffffff"
   bordercolor="#000000"
   borderopacity="0.25"
   inkscape:showpageshadow="2"
   inkscape:pageopacity="0.0"
   inkscape:pagecheckerboard="0"
   inkscape:deskcolor="#d1d1d1"
   inkscape:zoom="0.21033868"
   inkscape:cx="363.69915"
   inkscape:cy="237.71187"
   inkscape:window-width="1440"
   inkscape:window-height="777"
   inkscape:window-x="0"
   inkscape:window-y="25"
   inkscape:window-maximized="1"
   inkscape:current-layer="svg11" />&#10;&#10;&#10;<g
   id="g22"
   transform="translate(-193.00015,-321)">&#10;	&#10;<g
   id="object"
   transform="translate(-1.999853,-0.095)">&#10;	<g
   id="g11">&#10;		<g
   id="g2">&#10;			<path
   style="fill:#7cb2ab"
   d="m 849.435,757.776 h -576.87 c -16.214,0 -29.358,-13.144 -29.358,-29.358 V 350.453 c 0,-16.214 13.144,-29.358 29.358,-29.358 h 576.87 c 16.214,0 29.358,13.144 29.358,29.358 v 377.965 c 0,16.214 -13.144,29.358 -29.358,29.358 z"
   id="path1" />&#10;			<rect
   x="271.233"
   y="357.70801"
   style="fill:#d9e2ed"
   width="579.534"
   height="363.45401"
   id="rect2" />&#10;			<circle
   style="fill:#f4f4f6"
   cx="561"
   cy="339.22501"
   r="7.927"
   id="circle2" />&#10;		</g>&#10;		<g
   id="g3">&#10;			<path
   style="fill:#648495"
   d="M 900.326,800.905 H 221.674 C 206.942,800.905 195,788.962 195,774.231 v -16.455 h 732 v 16.455 c 0,14.732 -11.943,26.674 -26.674,26.674 z"
   id="path2" />&#10;			<path
   style="fill:#f4f4f6"
   d="m 609.476,769.557 h -96.951 c -2.953,0 -5.346,-2.394 -5.346,-5.346 v -6.435 h 107.644 v 6.435 c -10e-4,2.953 -2.395,5.346 -5.347,5.346 z"
   id="path3" />&#10;		</g>&#10;		<rect
   x="271.233"
   y="357.70801"
   style="fill:#ff9675"
   width="579.534"
   height="37.391998"
   id="rect3" />&#10;		<rect
   x="494.10001"
   y="438.452"
   style="fill:#f4f4f6"
   width="154.873"
   height="95.805"
   id="rect4" />&#10;		<rect
   x="673.79401"
   y="438.452"
   style="fill:#f4f4f6"
   width="154.873"
   height="95.805"
   id="rect5" />&#10;		<rect
   x="293.33301"
   y="438.452"
   style="fill:#f4f4f6"
   width="178.66701"
   height="245.097"
   id="rect6" />&#10;		<rect
   x="494.10001"
   y="556.505"
   style="fill:#f4f4f6"
   width="334.56601"
   height="25.333"
   id="rect7" />&#10;		<rect
   x="494.10001"
   y="604.72803"
   style="fill:#f4f4f6"
   width="334.56601"
   height="25.333"
   id="rect8" />&#10;		<g
   id="g10">&#10;			<g
   id="g9">&#10;				<polygon
   style="opacity:0.5;fill:#7cb2ab"
   points="356.622,600.238 404.289,541.579 452,600.291 "
   id="polygon8" />&#10;				<polygon
   style="fill:#7cb2ab"
   points="313.333,600.228 369.56,531.036 425.838,600.291 "
   id="polygon9" />&#10;			</g>&#10;			<circle
   style="fill:#ff9675"
   cx="390.64301"
   cy="531.03802"
   r="9.3299999"
   id="circle9" />&#10;		</g>&#10;	</g>&#10;</g><g
   id="g21"
   transform="translate(-1.99985,-0.095)">&#10;		<g
   id="g12">&#10;			<path
   style="fill:#7cb2ab"
   d="m 849.435,757.776 h -576.87 c -16.214,0 -29.358,-13.144 -29.358,-29.358 V 350.453 c 0,-16.214 13.144,-29.358 29.358,-29.358 h 576.87 c 16.214,0 29.358,13.144 29.358,29.358 v 377.965 c 0,16.214 -13.144,29.358 -29.358,29.358 z"
   id="path4" />&#10;			<rect
   x="271.233"
   y="357.70801"
   style="fill:#d9e2ed"
   width="579.534"
   height="363.45401"
   id="rect9" />&#10;			<circle
   style="fill:#f4f4f6"
   cx="561"
   cy="339.22501"
   r="7.927"
   id="circle10" />&#10;		</g>&#10;		<g
   id="g13">&#10;			<path
   style="fill:#648495"
   d="M 900.326,800.905 H 221.674 C 206.942,800.905 195,788.962 195,774.231 v -16.455 h 732 v 16.455 c 0,14.732 -11.943,26.674 -26.674,26.674 z"
   id="path12" />&#10;			<path
   style="fill:#f4f4f6"
   d="m 609.476,769.557 h -96.951 c -2.953,0 -5.346,-2.394 -5.346,-5.346 v -6.435 h 107.644 v 6.435 c -10e-4,2.953 -2.395,5.346 -5.347,5.346 z"
   id="path13" />&#10;		</g>&#10;		<rect
   x="271.233"
   y="357.70801"
   style="fill:#ff9675"
   width="579.534"
   height="37.391998"
   id="rect13" />&#10;		<rect
   x="494.10001"
   y="438.452"
   style="fill:#f4f4f6"
   width="154.873"
   height="95.805"
   id="rect14" />&#10;		<rect
   x="673.79401"
   y="438.452"
   style="fill:#f4f4f6"
   width="154.873"
   height="95.805"
   id="rect15" />&#10;		<rect
   x="293.33301"
   y="438.452"
   style="fill:#f4f4f6"
   width="178.66701"
   height="245.097"
   id="rect16" />&#10;		<rect
   x="494.10001"
   y="556.505"
   style="fill:#f4f4f6"
   width="334.56601"
   height="25.333"
   id="rect17" />&#10;		<rect
   x="494.10001"
   y="604.72803"
   style="fill:#f4f4f6"
   width="334.56601"
   height="25.333"
   id="rect18" />&#10;		<g
   id="g20">&#10;			<g
   id="g19">&#10;				<polygon
   style="opacity:0.5;fill:#7cb2ab"
   points="356.622,600.238 404.289,541.579 452,600.291 "
   id="polygon18" />&#10;				<polygon
   style="fill:#7cb2ab"
   points="313.333,600.228 369.56,531.036 425.838,600.291 "
   id="polygon19" />&#10;			</g>&#10;			<circle
   style="fill:#ff9675"
   cx="390.64301"
   cy="531.03802"
   r="9.3299999"
   id="circle19" />&#10;		</g>&#10;	</g></g></svg>
