<svg id="visual" viewBox="0 0 900 600" width="900" height="600" xmlns="http://www.w3.org/2000/svg" xmlns:xlink="http://www.w3.org/1999/xlink" version="1.1"><path d="M174 0L207.5 16.7C241 33.3 308 66.7 324.8 100C341.7 133.3 308.3 166.7 321.5 200C334.7 233.3 394.3 266.7 389.5 300C384.7 333.3 315.3 366.7 252 400C188.7 433.3 131.3 466.7 139.8 500C148.3 533.3 222.7 566.7 259.8 583.3L297 600L0 600L0 583.3C0 566.7 0 533.3 0 500C0 466.7 0 433.3 0 400C0 366.7 0 333.3 0 300C0 266.7 0 233.3 0 200C0 166.7 0 133.3 0 100C0 66.7 0 33.3 0 16.7L0 0Z" fill="#eeaecf" stroke-linecap="round" stroke-linejoin="miter"></path></svg>